<svg xmlns="http://www.w3.org/2000/svg" xml:space="preserve" width="2000" height="1500" data-id="lg_Fbd2T8UFI3Ep8FuHJD" data-version="1" viewBox="0 0 2000 1500"><path fill="#470e0e" stroke="transparent" d="M0 0h2000v1500H0z"/><g data-padding="20"><g transform="translate(-936.957 -675.57)scale(1.81106)"><rect width="183.734" height="536.75" x="504.892" y="216.752" fill="none" rx="0" ry="0" transform="rotate(-8 3053.646 -2696.503)"/><path fill="#ff4121" d="m1015.192 955.732-46.55-329.175 76.18-10.773q38.56-5.453 60.762 12.512 22.212 17.964 27.865 57.94l4.588 32.442q5.653 39.976-10.706 63.395-16.35 23.416-54.91 28.87l-24.453 3.457 18.952 134.017Zm26.126-188.357 24.453-3.458q12.692-1.794 18.05-9.752 5.348-7.946 2.954-24.875l-5.52-39.036q-2.394-16.929-9.737-23.08-7.354-6.16-20.045-4.365l-24.453 3.458Z"/><rect width="183.734" height="536.75" x="504.892" y="216.752" fill="none" rx="0" ry="0" transform="rotate(-8 2931.74 -2791.996)"/><path fill="#fffedf" d="m1027.372 937.72-46.55-329.175 76.18-10.773q38.56-5.453 60.772 12.511 22.2 17.965 27.855 57.942l4.587 32.442q5.654 39.976-10.696 63.393-16.36 23.418-54.92 28.871l-24.452 3.458 18.95 134.016Zm26.126-188.356 24.453-3.458q12.7-1.796 18.05-9.752 5.348-7.947 2.954-24.876l-5.52-39.035q-2.394-16.93-9.737-23.08-7.344-6.162-20.046-4.366l-24.453 3.458Z"/></g><path fill="transparent" stroke="transparent" stroke-width="1.957" d="M736.848 187.5h526.304v1125H736.848z"/></g></svg>